<svg width="34" height="34" viewBox="0 0 34 34" fill="none" xmlns="http://www.w3.org/2000/svg">
<path d="M16.6667 0C17.1087 0 17.5326 0.175595 17.8452 0.488155C18.1577 0.800716 18.3333 1.22464 18.3333 1.66667C18.3333 2.10869 18.1577 2.53262 17.8452 2.84518C17.5326 3.15774 17.1087 3.33333 16.6667 3.33333C14.0296 3.33333 11.4517 4.11532 9.25906 5.58041C7.06641 7.04549 5.35744 9.12787 4.34827 11.5642C3.3391 14.0006 3.07506 16.6815 3.58953 19.2679C4.104 21.8543 5.37388 24.2301 7.23858 26.0948C9.10328 27.9595 11.479 29.2293 14.0655 29.7438C16.6519 30.2583 19.3328 29.9942 21.7691 28.9851C24.2055 27.9759 26.2878 26.2669 27.7529 24.0743C29.218 21.8816 30 19.3038 30 16.6667C30 16.2246 30.1756 15.8007 30.4882 15.4882C30.8007 15.1756 31.2246 15 31.6667 15C32.1087 15 32.5326 15.1756 32.8452 15.4882C33.1577 15.8007 33.3333 16.2246 33.3333 16.6667C33.3333 25.8717 25.8717 33.3333 16.6667 33.3333C7.46167 33.3333 0 25.8717 0 16.6667C0 7.46167 7.46167 0 16.6667 0ZM16.6667 6.66667C17.1087 6.66667 17.5326 6.84226 17.8452 7.15482C18.1577 7.46738 18.3333 7.89131 18.3333 8.33333C18.3333 8.77536 18.1577 9.19928 17.8452 9.51184C17.5326 9.8244 17.1087 10 16.6667 10C15.3481 10 14.0592 10.391 12.9629 11.1235C11.8665 11.8561 11.0121 12.8973 10.5075 14.1154C10.0029 15.3336 9.87086 16.6741 10.1281 17.9673C10.3853 19.2605 11.0203 20.4484 11.9526 21.3807C12.885 22.3131 14.0729 22.948 15.3661 23.2052C16.6593 23.4625 17.9997 23.3304 19.2179 22.8259C20.4361 22.3213 21.4773 21.4668 22.2098 20.3705C22.9423 19.2741 23.3333 17.9852 23.3333 16.6667C23.3333 16.2246 23.5089 15.8007 23.8215 15.4882C24.134 15.1756 24.558 15 25 15C25.442 15 25.866 15.1756 26.1785 15.4882C26.4911 15.8007 26.6667 16.2246 26.6667 16.6667C26.6667 18.6445 26.0802 20.5779 24.9814 22.2224C23.8825 23.8669 22.3208 25.1486 20.4935 25.9055C18.6662 26.6623 16.6556 26.8604 14.7158 26.4745C12.776 26.0887 10.9941 25.1363 9.5956 23.7377C8.19707 22.3392 7.24467 20.5574 6.85881 18.6176C6.47296 16.6778 6.67099 14.6671 7.42787 12.8398C8.18475 11.0126 9.46647 9.45078 11.111 8.35197C12.7555 7.25316 14.6889 6.66667 16.6667 6.66667ZM27.6183 0.166667C27.8393 0.166667 28.0513 0.254464 28.2076 0.410744C28.3639 0.567025 28.4517 0.778986 28.4517 1V4.05C28.4521 4.27072 28.5401 4.48226 28.6963 4.63818C28.8526 4.7941 29.0643 4.88167 29.285 4.88167H32.3333C32.5543 4.88167 32.7663 4.96946 32.9226 5.12574C33.0789 5.28202 33.1667 5.49399 33.1667 5.715V7.24L30.02 10.3867C29.395 11.0118 28.5473 11.3631 27.6633 11.3633H24.33L17.8467 17.845C17.5323 18.1486 17.1113 18.3166 16.6743 18.3128C16.2373 18.309 15.8193 18.1337 15.5103 17.8247C15.2013 17.5157 15.026 17.0977 15.0222 16.6607C15.0184 16.2237 15.1864 15.8027 15.49 15.4883L21.9733 9.00667V5.67333C21.9731 4.78959 22.3238 3.94192 22.9483 3.31667L26.0983 0.166667H27.6183Z" fill="#464A70"/>
</svg>
