<svg width="40" height="35" viewBox="0 0 40 35" fill="none" xmlns="http://www.w3.org/2000/svg">
<path fill-rule="evenodd" clip-rule="evenodd" d="M13.3286 9.62367e-10C11.14 -3.29941e-05 9.03662 0.848372 7.46056 2.36689C5.88449 3.88541 4.95848 5.95579 4.87714 8.14286C1.97429 10.4143 0 13.4229 0 17.7086C0 20.9943 1.19429 23.2114 2.95143 25.2914C3.01624 27.255 3.69335 29.1491 4.88801 30.7088C6.08266 32.2685 7.73506 33.4156 9.61395 33.9896C11.4928 34.5636 13.5042 34.5358 15.3665 33.9101C17.2288 33.2844 18.8489 32.0921 20 30.5C21.1507 32.0932 22.771 33.2866 24.6338 33.9131C26.4966 34.5395 28.5088 34.5677 30.3884 33.9935C32.268 33.4194 33.9209 32.2717 35.1157 30.7113C36.3106 29.1508 36.9874 27.2557 37.0514 25.2914C38.8086 23.2114 40 20.9943 40 17.7086C40 13.4229 38.0229 10.4143 35.12 8.14571C35.0553 6.41246 34.4593 4.74101 33.4127 3.3579C32.3661 1.9748 30.9195 0.946935 29.2691 0.413631C27.6187 -0.119673 25.8442 -0.132626 24.1861 0.376529C22.5281 0.885683 21.0667 1.89232 20 3.26C19.2093 2.24489 18.1973 1.4236 17.0412 0.858665C15.8851 0.293733 14.6153 5.71553e-05 13.3286 9.62367e-10ZM8.44286 8.45714C8.44286 7.81554 8.56923 7.18022 8.81476 6.58746C9.06029 5.9947 9.42017 5.4561 9.87385 5.00242C10.3275 4.54874 10.8661 4.18886 11.4589 3.94333C12.0517 3.6978 12.687 3.57143 13.3286 3.57143C13.9702 3.57143 14.6055 3.6978 15.1983 3.94333C15.791 4.18886 16.3296 4.54874 16.7833 5.00242C17.237 5.4561 17.5969 5.9947 17.8424 6.58746C18.0879 7.18022 18.2143 7.81554 18.2143 8.45714V13.9486C18.1686 14.4914 17.8571 15.6286 17.1457 16.6657C16.4371 17.6943 15.4571 18.4657 14.1114 18.6171C13.6405 18.6702 13.2099 18.9081 12.9144 19.2787C12.6189 19.6492 12.4827 20.1219 12.5357 20.5929C12.5888 21.0638 12.8267 21.4944 13.1972 21.7899C13.5677 22.0854 14.0405 22.2216 14.5114 22.1686C15.8581 22.0203 17.1386 21.5065 18.2143 20.6829V24.98C18.2143 26.5311 17.5981 28.0187 16.5013 29.1156C15.4045 30.2124 13.9169 30.8286 12.3657 30.8286C10.8146 30.8286 9.32697 30.2124 8.23015 29.1156C7.13333 28.0187 6.51714 26.5311 6.51714 24.98V24.9257C6.61714 24.3914 6.82286 23.7686 7.1 23.2057C7.39714 22.6 7.7 22.2229 7.90571 22.0629C8.08994 21.9175 8.24373 21.7372 8.35829 21.5324C8.47285 21.3276 8.54595 21.1022 8.57341 20.8691C8.60087 20.636 8.58215 20.3998 8.51833 20.174C8.4545 19.9481 8.34682 19.7371 8.20143 19.5529C8.05604 19.3686 7.87578 19.2148 7.67096 19.1003C7.46613 18.9857 7.24075 18.9126 7.00767 18.8852C6.7746 18.8577 6.5384 18.8764 6.31255 18.9402C6.08671 19.0041 5.87565 19.1117 5.69143 19.2571C5.12457 19.7279 4.64488 20.2946 4.27429 20.9314C3.78457 19.9291 3.54256 18.8238 3.56857 17.7086C3.56857 15.3771 4.36286 13.5943 5.82571 12.0743C6.12679 12.5923 6.48942 13.072 6.90571 13.5029C7.81143 14.4457 8.90571 15.08 9.80286 15.2829C10.0344 15.3438 10.2759 15.3575 10.5129 15.3233C10.7498 15.289 10.9775 15.2074 11.1823 15.0834C11.3872 14.9593 11.5649 14.7954 11.7051 14.6012C11.8453 14.4071 11.945 14.1867 11.9982 13.9533C12.0515 13.7198 12.0573 13.4781 12.0153 13.2423C11.9732 13.0066 11.8842 12.7817 11.7535 12.5811C11.6227 12.3805 11.453 12.2082 11.2544 12.0745C11.0557 11.9408 10.8322 11.8484 10.5971 11.8029L10.4857 11.76C10.3898 11.7166 10.2963 11.668 10.2057 11.6143C9.72295 11.3161 9.31372 10.9127 9.00849 10.4344C8.70326 9.95598 8.50992 9.4149 8.44286 8.85143V8.45714ZM25.4914 22.1686C24.1438 22.0208 22.8622 21.507 21.7857 20.6829V24.98C21.7857 26.5311 22.4019 28.0187 23.4987 29.1156C24.5955 30.2124 26.0831 30.8286 27.6343 30.8286C29.1854 30.8286 30.673 30.2124 31.7699 29.1156C32.8667 28.0187 33.4829 26.5311 33.4829 24.98V24.9257C33.3625 24.3299 33.1667 23.7519 32.9 23.2057C32.6029 22.6 32.3 22.2229 32.0943 22.0629C31.9101 21.9175 31.7563 21.7372 31.6417 21.5324C31.5271 21.3276 31.4541 21.1022 31.4266 20.8691C31.3991 20.636 31.4178 20.3998 31.4817 20.174C31.5455 19.9481 31.6532 19.7371 31.7986 19.5529C31.944 19.3686 32.1242 19.2148 32.329 19.1003C32.5339 18.9857 32.7593 18.9126 32.9923 18.8852C33.2254 18.8577 33.4616 18.8764 33.6874 18.9402C33.9133 19.0041 34.1243 19.1117 34.3086 19.2571C34.8829 19.7143 35.3543 20.3143 35.7257 20.9314C36.1971 19.9829 36.4314 18.9686 36.4314 17.7086C36.4314 15.3771 35.6371 13.5943 34.1743 12.0743C33.8732 12.5923 33.5106 13.072 33.0943 13.5029C32.1886 14.4457 31.0943 15.08 30.1971 15.2829C29.9656 15.3438 29.7241 15.3575 29.4871 15.3233C29.2502 15.289 29.0225 15.2074 28.8177 15.0834C28.6128 14.9593 28.4351 14.7954 28.2949 14.6012C28.1547 14.4071 28.0551 14.1867 28.0018 13.9533C27.9485 13.7198 27.9427 13.4781 27.9847 13.2423C28.0268 13.0066 28.1158 12.7817 28.2465 12.5811C28.3773 12.3805 28.547 12.2082 28.7456 12.0745C28.9443 11.9408 29.1678 11.8484 29.4029 11.8029L29.5143 11.76C29.6102 11.7166 29.7037 11.668 29.7943 11.6143C30.2767 11.3163 30.6857 10.9135 30.9909 10.4356C31.2961 9.95777 31.4897 9.41726 31.5571 8.85429V8.45429C31.5571 7.15851 31.0424 5.91581 30.1262 4.99956C29.2099 4.08331 27.9672 3.56857 26.6714 3.56857C25.3757 3.56857 24.133 4.08331 23.2167 4.99956C22.3005 5.91581 21.7857 7.15851 21.7857 8.45429V13.9486C21.8314 14.4914 22.1429 15.6286 22.8543 16.6657C23.5629 17.6943 24.54 18.4657 25.8886 18.6171C26.1218 18.6434 26.3475 18.7153 26.5529 18.8288C26.7583 18.9424 26.9393 19.0952 27.0856 19.2787C27.2319 19.4621 27.3407 19.6726 27.4057 19.8981C27.4706 20.1236 27.4906 20.3597 27.4643 20.5929C27.438 20.826 27.3661 21.0518 27.2526 21.2572C27.1391 21.4626 26.9862 21.6436 26.8028 21.7899C26.6193 21.9362 26.4088 22.045 26.1833 22.1099C25.9578 22.1749 25.7218 22.1948 25.4886 22.1686" fill="#464A70"/>
</svg>
