<svg width="40" height="40" viewBox="0 0 40 40" fill="none" xmlns="http://www.w3.org/2000/svg">
<path d="M3.3296 29.7833C2.88757 29.7833 2.46365 29.9589 2.15109 30.2715C1.83853 30.584 1.66293 31.008 1.66293 31.45V33.95C1.66293 34.0605 1.70683 34.1665 1.78497 34.2446C1.86311 34.3228 1.96909 34.3667 2.0796 34.3667H7.91293C8.02344 34.3667 8.12942 34.3228 8.20756 34.2446C8.2857 34.1665 8.3296 34.0605 8.3296 33.95V31.45C8.3296 31.008 8.154 30.584 7.84144 30.2715C7.52888 29.9589 7.10496 29.7833 6.66293 29.7833H3.3296ZM13.3296 24.7833C12.8876 24.7833 12.4636 24.9589 12.1511 25.2715C11.8385 25.584 11.6629 26.008 11.6629 26.45V33.95C11.6629 34.0605 11.7068 34.1665 11.785 34.2446C11.8631 34.3228 11.9691 34.3667 12.0796 34.3667H17.9129C18.0234 34.3667 18.1294 34.3228 18.2076 34.2446C18.2857 34.1665 18.3296 34.0605 18.3296 33.95V26.45C18.3296 26.008 18.154 25.584 17.8414 25.2715C17.5289 24.9589 17.105 24.7833 16.6629 24.7833H13.3296ZM23.3296 18.95C22.8876 18.95 22.4636 19.1256 22.1511 19.4381C21.8385 19.7507 21.6629 20.1746 21.6629 20.6167V33.95C21.6629 34.0605 21.7068 34.1665 21.785 34.2446C21.8631 34.3228 21.9691 34.3667 22.0796 34.3667H27.9129C28.0234 34.3667 28.1294 34.3228 28.2076 34.2446C28.2857 34.1665 28.3296 34.0605 28.3296 33.95V20.6167C28.3296 20.1746 28.154 19.7507 27.8414 19.4381C27.5289 19.1256 27.105 18.95 26.6629 18.95H23.3296ZM32.0796 34.3667H37.9129C38.0234 34.3667 38.1294 34.3228 38.2076 34.2446C38.2857 34.1665 38.3296 34.0605 38.3296 33.95V13.95C38.3296 13.508 38.154 13.084 37.8414 12.7715C37.5289 12.4589 37.105 12.2833 36.6629 12.2833H33.3296C32.8876 12.2833 32.4636 12.4589 32.1511 12.7715C31.8385 13.084 31.6629 13.508 31.6629 13.95V33.95C31.6629 34.0605 31.7068 34.1665 31.785 34.2446C31.8631 34.3228 31.9691 34.3667 32.0796 34.3667ZM30.1129 7.01665L30.6296 7.78332C30.7428 7.95341 30.8965 8.09272 31.0769 8.18872C31.2572 8.28472 31.4586 8.33441 31.6629 8.33332C31.8751 8.32563 32.0817 8.26329 32.2628 8.15233C32.4438 8.04138 32.5931 7.88557 32.6963 7.69998L36.0296 1.86665C36.1521 1.66892 36.217 1.44092 36.217 1.20832C36.217 0.97571 36.1521 0.747717 36.0296 0.549984C35.9064 0.353919 35.7292 0.19767 35.5192 0.10008C35.3093 0.00249069 35.0755 -0.0322722 34.8463 -1.60066e-05L28.1796 0.833317C27.9684 0.86003 27.7675 0.940249 27.596 1.06637C27.4244 1.19249 27.288 1.36032 27.1995 1.55397C27.111 1.74762 27.0735 1.96065 27.0904 2.17288C27.1073 2.3851 27.1782 2.58949 27.2963 2.76665L27.7963 3.53332C27.827 3.57779 27.8485 3.62803 27.8593 3.68102C27.8701 3.73401 27.87 3.78864 27.8591 3.8416C27.8482 3.89457 27.8267 3.94478 27.7958 3.98919C27.765 4.0336 27.7254 4.07129 27.6796 4.09998L4.0796 19.8667C3.89639 19.9877 3.73891 20.1438 3.61623 20.326C3.49354 20.5081 3.40805 20.7127 3.36469 20.928C3.32132 21.1433 3.32093 21.365 3.36353 21.5804C3.40613 21.7959 3.49089 22.0007 3.61293 22.1833C3.76582 22.4095 3.97192 22.5947 4.21313 22.7225C4.45434 22.8504 4.72326 22.9171 4.99627 22.9167C5.32393 22.9204 5.64453 22.8213 5.91293 22.6333L29.5296 6.89998C29.5754 6.86882 29.6269 6.84709 29.6812 6.83608C29.7355 6.82507 29.7914 6.825 29.8458 6.83586C29.9001 6.84672 29.9517 6.86831 29.9976 6.89935C30.0434 6.93039 30.0827 6.97027 30.1129 7.01665ZM1.66293 40H38.3296C38.7256 39.9991 39.1084 39.8572 39.4093 39.5998C39.7103 39.3423 39.9097 38.9861 39.9719 38.595C40.034 38.2039 39.9549 37.8034 39.7487 37.4653C39.5424 37.1272 39.2225 36.8736 38.8463 36.75C38.6795 36.6952 38.5051 36.667 38.3296 36.6667H1.66293C1.4874 36.667 1.31303 36.6952 1.14627 36.75C0.770036 36.8736 0.450133 37.1272 0.243878 37.4653C0.0376231 37.8034 -0.0415045 38.2039 0.0206734 38.595C0.0828514 38.9861 0.282271 39.3423 0.583201 39.5998C0.884131 39.8572 1.2669 39.9991 1.66293 40Z" fill="#464A70"/>
</svg>
